<?xml version="1.0" standalone="no"?>
<!DOCTYPE svg PUBLIC "-//W3C//DTD SVG 20010904//EN"
 "http://www.w3.org/TR/2001/REC-SVG-20010904/DTD/svg10.dtd">
<svg version="1.0" xmlns="http://www.w3.org/2000/svg"
 width="512.000000pt" height="512.000000pt" viewBox="0 0 512.000000 512.000000"
 preserveAspectRatio="xMidYMid meet">
<metadata>
Created by potrace 1.14, written by Peter Selinger 2001-2017
</metadata>
<g transform="translate(0.000000,512.000000) scale(0.100000,-0.100000)"
fill="#000000" stroke="none">
<path d="M2305 5109 c-486 -46 -959 -241 -1355 -556 -107 -85 -294 -272 -383
-383 -271 -337 -468 -773 -532 -1175 -37 -233 -42 -606 -12 -795 25 -149 27
-159 53 -265 90 -358 257 -693 491 -985 87 -109 276 -297 378 -378 44 -35 87
-69 95 -75 23 -19 181 -122 230 -151 178 -104 460 -222 627 -261 119 -28 196
-45 233 -50 25 -3 52 -8 60 -10 92 -23 564 -28 700 -7 333 52 593 134 849 268
58 31 116 63 130 73 15 10 33 20 41 23 25 9 241 167 310 226 355 308 618 694
763 1122 62 182 107 386 122 545 3 39 8 87 11 107 l5 38 -302 -5 c-166 -3
-303 -6 -304 -7 -2 -2 -5 -30 -9 -62 -69 -658 -478 -1241 -1081 -1544 -126
-62 -342 -138 -450 -156 -16 -3 -54 -10 -84 -16 -102 -19 -186 -25 -356 -24
-155 2 -196 6 -399 41 -56 9 -232 65 -316 100 -585 241 -1017 745 -1164 1356
-24 101 -29 124 -45 262 -11 91 -6 370 8 463 34 222 88 398 186 597 220 448
603 795 1069 969 110 42 302 92 386 101 30 3 62 8 71 11 14 4 178 13 255 14
l32 0 2 203 c2 206 2 327 1 373 l-1 25 -122 -3 c-68 -1 -154 -5 -193 -9z"/>
<path d="M4520 4903 c-19 -10 -154 -75 -299 -145 -144 -70 -264 -128 -266
-128 -1 0 -119 -57 -261 -126 -143 -69 -306 -149 -364 -176 -58 -28 -168 -81
-245 -118 -77 -37 -216 -105 -310 -150 -284 -137 -295 -142 -290 -150 3 -4 78
-56 167 -116 90 -60 165 -112 168 -115 3 -3 67 -47 143 -98 88 -60 135 -97
130 -104 -4 -7 -32 -48 -62 -92 -30 -44 -100 -147 -156 -230 -56 -82 -144
-211 -195 -285 -50 -74 -112 -165 -137 -202 -25 -38 -49 -68 -53 -68 -6 0 -18
11 -213 193 -59 55 -120 112 -135 126 -15 14 -84 78 -152 143 -69 64 -145 135
-170 158 -25 23 -74 69 -110 103 -120 114 -99 111 -177 27 -38 -41 -83 -90
-102 -109 -18 -20 -81 -87 -140 -150 -58 -62 -134 -143 -168 -180 -35 -36 -63
-69 -63 -72 0 -4 24 -28 53 -55 28 -26 93 -86 143 -133 50 -48 140 -132 200
-188 60 -55 127 -118 150 -140 79 -74 279 -261 314 -293 30 -28 170 -159 314
-294 108 -102 161 -132 262 -149 119 -20 252 20 337 101 21 20 74 91 119 157
45 66 105 154 133 195 29 41 130 190 225 330 95 140 206 302 245 360 39 58
100 147 134 197 34 51 67 95 72 99 9 5 95 -51 462 -302 127 -87 167 -110 168
-97 1 10 3 34 4 53 9 99 15 183 20 260 3 47 7 110 10 140 3 30 7 89 10 130 3
41 7 100 10 130 3 30 7 93 10 140 3 47 8 108 10 135 3 28 7 84 10 125 3 41 7
104 10 140 2 36 7 101 10 145 3 44 7 103 10 130 2 28 7 86 10 130 3 44 7 105
10 135 6 72 14 189 20 270 3 36 7 102 11 148 3 45 4 82 2 82 -1 0 -19 -8 -38
-17z"/>
</g>
</svg>
